# Blender v2.74 (sub 0) OBJ File: ''
# www.blender.org
mtllib initial_mesh.mtl
o Box
v 1.000000 1.000000 0.100000
v 1.000000 1.000000 0.000000
v 1.000000 -1.000000 0.100000
v 1.000000 -1.000000 0.000000
v -1.000000 1.000000 0.000000
v -1.000000 1.000000 0.100000
v -1.000000 -1.000000 0.000000
v -1.000000 -1.000000 0.100000
vt 0.000000 1.000000
vt 0.000000 0.000000
vt 1.000000 0.000000
vt 1.000000 1.000000
vn 1.000000 0.000000 0.000000
vn -1.000000 0.000000 0.000000
vn 0.000000 1.000000 0.000000
vn 0.000000 -1.000000 0.000000
vn 0.000000 0.000000 1.000000
vn 0.000000 0.000000 -1.000000
usemtl b0b0b0
s 1
f 1/1/1 3/2/1 4/3/1 2/4/1
f 5/1/2 7/2/2 8/3/2 6/4/2
f 5/1/3 6/2/3 1/3/3 2/4/3
f 8/1/4 7/2/4 4/3/4 3/4/4
f 6/1/5 8/2/5 3/3/5 1/4/5
f 2/1/6 4/2/6 7/3/6 5/4/6
