# Blender v2.80 (sub 44) OBJ File: 'light_box.blend'
# www.blender.org
mtllib light_box.mtl
o Light_Source
v 0.110000 0.435881 0.004741
v 0.110000 0.241804 0.194407
v -0.110000 0.241804 0.194407
v -0.110000 0.435881 0.004741
vt 0.000000 1.000000
vt 0.000000 0.000000
vt 1.000000 0.000000
vt 1.000000 1.000000
vn 0.0000 -0.6989 -0.7152
usemtl LightSource
s 1
f 1/1/1 2/2/1 3/3/1
f 3/3/1 4/4/1 1/1/1
o Target
v -0.040000 0.150000 0.040000
v -0.040000 0.150000 -0.040000
v 0.040000 0.150000 -0.040000
v 0.040000 0.150000 0.040000
v -0.040000 0.160000 0.040000
v 0.040000 0.160000 0.040000
v 0.040000 0.160000 -0.040000
v -0.040000 0.160000 -0.040000
vt 1.000000 0.000000
vt 1.000000 1.000000
vt 0.000000 1.000000
vt 0.000000 0.000000
vt 0.000000 0.000000
vt 1.000000 0.000000
vt 1.000000 1.000000
vt 0.000000 1.000000
vt 0.000000 0.000000
vt 1.000000 0.000000
vt 1.000000 1.000000
vt 0.000000 1.000000
vt 1.000000 0.000000
vt 0.000000 1.000000
vt 0.000000 0.000000
vt 1.000000 0.000000
vt 1.000000 1.000000
vt 0.000000 1.000000
vt 0.000000 0.000000
vt 1.000000 1.000000
vn 0.0000 -1.0000 0.0000
vn 0.0000 1.0000 0.0000
vn 0.0000 -0.0000 1.0000
vn 1.0000 0.0000 0.0000
vn 0.0000 0.0000 -1.0000
vn -1.0000 0.0000 0.0000
usemtl Brass
s 1
f 5/5/2 6/6/2 7/7/2 8/8/2
f 9/9/3 10/10/3 11/11/3 12/12/3
f 5/13/4 8/14/4 10/15/4 9/16/4
f 8/8/5 7/17/5 11/11/5 10/18/5
f 7/19/6 6/20/6 12/21/6 11/22/6
f 6/23/7 5/5/7 9/24/7 12/12/7
o Stand
v -0.110000 -0.000000 0.135000
v -0.110000 0.000000 -0.135000
v 0.110000 0.000000 -0.135000
v 0.110000 -0.000000 0.135000
v -0.110000 0.150000 0.135000
v 0.110000 0.150000 0.135000
v 0.110000 0.150000 -0.135000
v -0.110000 0.150000 -0.135000
vt 1.000000 0.000000
vt 1.000000 1.000000
vt 0.000000 1.000000
vt 0.000000 0.000000
vt 0.000000 0.000000
vt 1.000000 0.000000
vt 1.000000 1.000000
vt 0.000000 1.000000
vt 0.000000 0.000000
vt 1.000000 0.000000
vt 1.000000 1.000000
vt 0.000000 1.000000
vt 1.000000 0.000000
vt 0.000000 1.000000
vt 0.000000 0.000000
vt 1.000000 0.000000
vt 1.000000 1.000000
vt 0.000000 1.000000
vt 0.000000 0.000000
vt 1.000000 1.000000
vn 0.0000 -1.0000 -0.0000
vn 0.0000 1.0000 0.0000
vn 0.0000 -0.0000 1.0000
vn 1.0000 0.0000 0.0000
vn 0.0000 0.0000 -1.0000
vn -1.0000 0.0000 0.0000
usemtl BlackPaperStand
s 1
f 13/25/8 14/26/8 15/27/8 16/28/8
f 17/29/9 18/30/9 19/31/9 20/32/9
f 13/33/10 16/34/10 18/35/10 17/36/10
f 16/28/11 15/37/11 19/31/11 18/38/11
f 15/39/12 14/40/12 20/41/12 19/42/12
f 14/43/13 13/25/13 17/44/13 20/32/13
o Light
v 0.110000 0.265749 0.369581
v 0.110000 0.001729 0.506947
v 0.110000 0.001729 0.140217
v 0.110000 0.241804 0.194407
v 0.110000 0.435881 0.004741
v 0.110000 0.488811 0.003481
v 0.110000 0.526388 0.078827
v 0.110000 0.534285 0.155915
v 0.110000 0.516422 0.229089
v 0.110000 0.476717 0.292696
v 0.110000 0.419091 0.341083
v 0.110000 0.347462 0.368596
v -0.110000 0.265749 0.369581
v -0.110000 0.001729 0.506947
v -0.110000 0.001729 0.140217
v -0.110000 0.241804 0.194407
v -0.110000 0.435881 0.004741
v -0.110000 0.488811 0.003481
v -0.110000 0.526388 0.078827
v -0.110000 0.534285 0.155915
v -0.110000 0.516422 0.229089
v -0.110000 0.476717 0.292696
v -0.110000 0.419091 0.341083
v -0.110000 0.347462 0.368596
vt 0.437493 0.294396
vt 0.380456 0.000000
vt 0.760912 0.109780
vt 0.626975 0.323863
vt 0.760912 0.566818
vt 0.745084 0.617971
vt 0.654753 0.631464
vt 0.572224 0.615964
vt 0.502094 0.576923
vt 0.448960 0.519793
vt 0.417417 0.450028
vt 0.412062 0.373078
vt 0.760912 0.275494
vt 0.760912 0.000000
vt 1.000000 0.000000
vt 1.000000 0.275494
vt 0.239088 0.631464
vt 0.239088 1.000000
vt 0.000000 1.000000
vt 0.000000 0.631464
vt 0.239088 0.876926
vt 0.239088 0.631464
vt 0.478176 0.631464
vt 0.478176 0.876926
vt 0.478176 0.631464
vt 0.535281 0.631464
vt 0.535281 0.852547
vt 0.478176 0.852548
vt 0.584019 0.631464
vt 0.584019 0.852548
vt 0.760912 0.667583
vt 0.760912 0.612956
vt 1.000000 0.612956
vt 1.000000 0.667583
vt 0.760912 0.544857
vt 1.000000 0.544857
vt 0.760912 0.470173
vt 1.000000 0.470173
vt 0.760912 0.395793
vt 1.000000 0.395793
vt 0.760912 0.328603
vt 1.000000 0.328603
vt 0.057037 0.337069
vt 0.031606 0.258386
vt 0.036961 0.181436
vt 0.068504 0.111671
vt 0.121638 0.054541
vt 0.191768 0.015500
vt 0.274298 0.000000
vt 0.364628 0.013493
vt 0.380456 0.064646
vt 0.246519 0.307601
vt 0.380456 0.521684
vt 0.000000 0.631464
vn 1.0000 -0.0000 0.0000
vn 0.0000 0.4616 0.8871
vn 0.0000 -1.0000 -0.0000
vn 0.0000 0.2202 -0.9755
vn 0.0000 -0.0238 -0.9997
vn 0.0000 0.8949 -0.4463
vn 0.0000 0.9948 -0.1019
vn 0.0000 0.9715 0.2372
vn 0.0000 0.8483 0.5295
vn 0.0000 0.6430 0.7658
vn 0.0000 0.3586 0.9335
vn 0.0000 0.0121 0.9999
vn -1.0000 0.0000 0.0000
usemtl BlackPaperLight
s 1
f 21/45/14 22/46/14 23/47/14
f 21/45/14 23/47/14 24/48/14
f 25/49/14 26/50/14 27/51/14
f 25/49/14 27/51/14 28/52/14
f 25/49/14 28/52/14 29/53/14
f 25/49/14 29/53/14 30/54/14
f 25/49/14 30/54/14 31/55/14
f 24/48/14 25/49/14 31/55/14
f 24/48/14 31/55/14 32/56/14
f 21/45/14 24/48/14 32/56/14
f 33/57/15 34/58/15 22/59/15
f 22/59/15 21/60/15 33/57/15
f 34/61/16 35/62/16 23/63/16
f 23/63/16 22/64/16 34/61/16
f 35/65/17 36/66/17 24/67/17
f 24/67/17 23/68/17 35/65/17
f 37/69/18 38/70/18 26/71/18
f 26/71/18 25/72/18 37/69/18
f 38/70/19 39/73/19 27/74/19
f 27/74/19 26/71/19 38/70/19
f 39/75/20 40/76/20 28/77/20
f 28/77/20 27/78/20 39/75/20
f 40/76/21 41/79/21 29/80/21
f 29/80/21 28/77/21 40/76/21
f 41/79/22 42/81/22 30/82/22
f 30/82/22 29/80/22 41/79/22
f 42/81/23 43/83/23 31/84/23
f 31/84/23 30/82/23 42/81/23
f 43/83/24 44/85/24 32/86/24
f 32/86/24 31/84/24 43/83/24
f 44/85/25 33/57/25 21/60/25
f 21/60/25 32/86/25 44/85/25
f 33/87/26 44/88/26 43/89/26
f 43/89/26 42/90/26 41/91/26
f 33/87/26 43/89/26 41/91/26
f 41/91/26 40/92/26 39/93/26
f 39/93/26 38/94/26 37/95/26
f 41/91/26 39/93/26 37/95/26
f 33/87/26 41/91/26 37/95/26
f 33/87/26 37/95/26 36/96/26
f 33/87/26 36/96/26 35/97/26
f 33/87/26 35/97/26 34/98/26
