# 3ds Max Wavefront OBJ Exporter v0.97b - (c)2007 guruware
# File Created: 20.05.2020 08:03:12

mtllib top_lens2.mtl

#
# object MeshBody6
#

v  -0.7500 -0.7000 0.9954
v  0.3790 -0.7000 0.3528
v  0.3710 -0.7000 1.6518
v  0.3790 0.7000 0.3528
v  0.3710 0.7000 1.6518
v  -0.7500 0.7000 0.9954
# 6 vertices

vn -0.8320 -0.5547 -0.0051
vn 0.4204 -0.5547 -0.7180
vn 0.4116 -0.5547 0.7231
vn 0.4204 0.5547 -0.7180
vn 0.4116 0.5547 0.7231
vn -0.8320 0.5547 -0.0051
# 6 vertex normals

vt 0.0000 0.4947 0.0000
vt 1.0000 0.0000 0.0000
vt 0.9929 1.0000 0.0000
vt 1.0000 1.0000 0.0000
vt 0.0000 0.0000 0.0000
vt 0.0000 1.0000 0.0000
vt 0.9929 0.0000 0.0000
# 7 texture coords

o MeshBody6
g MeshBody6
usemtl Glass___Window
s 1
f 1/1/1 2/2/2 3/3/3 
f 4/2/4 5/4/5 2/5/2 
f 2/5/2 5/4/5 3/6/3 
f 5/3/5 6/6/6 3/7/3 
f 3/7/3 6/6/6 1/5/1 
f 6/6/6 4/4/4 1/5/1 
f 1/5/1 4/4/4 2/2/2 
f 4/2/4 6/1/6 5/3/5 
# 8 faces

